<svg xmlns="http://www.w3.org/2000/svg" fill="none" viewBox="0 0 96 96" id="Kotlin--Streamline-Svg-Logos" height="24" width="24">
  <desc>
    Kotlin Streamline Icon: https://streamlinehq.com
  </desc>
  <path fill="url(#a)" d="M20.2943 57.8807H1V38.5941h19.2943l-9.6472 9.6394 9.6472 9.6472Z"></path>
  <path fill="#000000" d="M50.4127 43.4312c1.3318 0 2.6019.3629 3.6905.969 1.0886.6022 1.9379 1.5094 2.5363 2.6019.6061 1.1504.969 2.4205.969 3.8102 0 1.3898-.3012 2.6599-.9072 3.8103-.6061 1.0886-1.4516 1.9958-2.5402 2.6019-1.0886.6678-2.3587.9689-3.7484.9689-1.3898 0-2.6599-.3628-3.7485-.9689-1.1504-.6061-1.9958-1.5133-2.6019-2.6019-.6061-1.0887-.9072-2.4205-.9072-3.8103 0-1.3897.3011-2.6598.9072-3.8102.6061-1.0886 1.5133-1.934 2.6019-2.6019 1.0886-.6678 2.3587-.969 3.7485-.969Zm-6.7712-4.8988-8.7708 9.3731 8.8905 9.9752h-3.9299l-8.408-9.3151v9.3151h-3.0844V38.5942h3.0844v8.8905l8.3462-8.9523h3.872Zm6.7171 7.6706c-.8454 0-1.5712.1815-2.1773.6061-.606.3629-1.0886.9072-1.4515 1.633-.3628.6678-.5443 1.5132-.5443 2.4204 0 .9072.1197 1.6947.4826 2.4205.3628.664.8454 1.2083 1.4515 1.633.664.4246 1.3936.606 2.1772.606.7837 0 1.5095-.1814 2.1155-.606.6061-.3629 1.0887-.9072 1.4516-1.633.3628-.7258.5443-1.5133.5443-2.4205s-.1197-1.6947-.4826-2.4204c-.3628-.664-.8454-1.2084-1.4515-1.633-.6022-.4246-1.328-.6061-2.1155-.6061Zm13.4844-5.9759h-2.9648v2.4205c0 .3629-.0618.664-.3011.8454-.1814.1815-.4825.3011-.8454.3011h-1.4515v2.5402h2.5401v7.6204c0 .7875.1815 1.5133.4826 2.1155.3011.6061.7875 1.0886 1.3897 1.3898.6061.3628 1.2701.4825 2.1155.4825h2.2969v-2.6598h-1.6947c-.4246 0-.7875-.1197-1.0886-.4826-.2432-.3011-.4246-.7257-.4246-1.2083v-7.2575h3.2659v-2.5402h-3.2659v-3.567h-.0541Zm5.6246-2.4205h3.0227v20.0741h-3.0227V37.8066Zm6.4701.0618h3.0844v3.1462h-3.0844v-3.1462Zm0 5.9257h3.0226v14.1445h-3.0226V43.7941Zm18.4488 2.297c-.4246-.8455-1.0268-1.5133-1.8144-1.9341-.7875-.4825-1.6947-.7258-2.7216-.7258-1.0886 0-2.0575.3012-2.903.7876-.664.4246-1.2083 1.0268-1.6329 1.6947v-2.1773h-2.903v14.1445h3.0226v-7.9254c0-.7875.1197-1.4515.4247-2.0576.3011-.606.7257-1.0268 1.2083-1.3897.5443-.3011 1.1504-.4826 1.8762-.4826.6639 0 1.1504.1197 1.6329.4247.4826.305.7875.664 1.0269 1.1504.2432.4825.3629 1.0886.3629 1.7526v8.4659h3.0226v-8.8288c.0657-1.0847-.1737-2.0498-.6022-2.8991Z"></path>
  <defs>
    <linearGradient id="a" x1="1930.25" x2="1.964" y1="39.159" y2="1967.45" gradientUnits="userSpaceOnUse">
      <stop offset=".003" stop-color="#e44857"></stop>
      <stop offset=".469" stop-color="#c711e1"></stop>
      <stop offset="1" stop-color="#7f52ff"></stop>
    </linearGradient>
  </defs>
</svg>